<svg width="48" height="48" viewBox="0 0 48 48" fill="none" xmlns="http://www.w3.org/2000/svg">
<rect width="48" height="48" rx="10" fill="#101026"/>
<path d="M5.98769 34V13.5385H19.2V16.5492H9.72923V22.2785H17.3877V25.2308H9.72923V34H5.98769ZM28.2736 34.3508C26.8121 34.3508 25.5162 34.039 24.386 33.4154C23.2557 32.7918 22.369 31.9149 21.726 30.7846C21.0829 29.6544 20.7613 28.3487 20.7613 26.8677C20.7613 25.3672 21.0731 24.0323 21.6967 22.8631C22.3398 21.6938 23.2167 20.7877 24.3275 20.1446C25.4577 19.482 26.7829 19.1508 28.3029 19.1508C29.7254 19.1508 30.9824 19.4626 32.0736 20.0862C33.1649 20.7097 34.0126 21.5672 34.6167 22.6585C35.2403 23.7303 35.5521 24.9287 35.5521 26.2538C35.5521 26.4682 35.5424 26.6923 35.5229 26.9262C35.5229 27.16 35.5131 27.4036 35.4936 27.6569H24.4736C24.5516 28.7872 24.9413 29.6738 25.6429 30.3169C26.3639 30.96 27.2311 31.2815 28.2444 31.2815C29.0044 31.2815 29.6377 31.1159 30.1444 30.7846C30.6706 30.4338 31.0603 29.9856 31.3136 29.44H35.1136C34.8408 30.3559 34.3829 31.1938 33.7398 31.9538C33.1162 32.6944 32.3367 33.279 31.4013 33.7077C30.4854 34.1364 29.4429 34.3508 28.2736 34.3508ZM28.3029 22.1908C27.387 22.1908 26.5783 22.4538 25.8767 22.98C25.1752 23.4867 24.727 24.2662 24.5321 25.3185H31.7521C31.6936 24.3636 31.3429 23.6036 30.6998 23.0385C30.0567 22.4733 29.2577 22.1908 28.3029 22.1908Z" fill="white"/>
<path d="M40.3067 34.2046C39.6246 34.2046 39.0595 33.9903 38.6113 33.5615C38.1826 33.1328 37.9682 32.6164 37.9682 32.0123C37.9682 31.3887 38.1826 30.8626 38.6113 30.4338C39.0595 30.0051 39.6246 29.7908 40.3067 29.7908C40.9887 29.7908 41.5441 30.0051 41.9728 30.4338C42.421 30.8626 42.6451 31.3887 42.6451 32.0123C42.6451 32.6164 42.421 33.1328 41.9728 33.5615C41.5441 33.9903 40.9887 34.2046 40.3067 34.2046Z" fill="#01DFB2"/>
</svg>
