<svg width="19" height="20" viewBox="0 0 19 20" fill="none" xmlns="http://www.w3.org/2000/svg">
<path fill-rule="evenodd" clip-rule="evenodd" d="M15.8567 2.84882C14.142 1.02083 11.8555 0.0458984 9.45492 0.0458984C4.42498 0.0458984 0.30957 4.43308 0.30957 9.79519C0.30957 11.5013 0.766847 13.2074 1.56707 14.6698L0.30957 19.5445L5.11088 18.2039C6.48268 18.9351 7.96885 19.4226 9.45492 19.4226C14.4849 19.4226 18.6003 15.0354 18.6003 9.67327C18.6003 7.11413 17.5715 4.67681 15.8567 2.84882ZM9.45492 17.8383C8.08312 17.8383 6.71131 17.4728 5.56815 16.7416L5.33951 16.6197L2.48158 17.4727L3.28182 14.5479L3.05317 14.1824C2.25295 12.8419 1.91 11.3795 1.91 9.9171C1.91 5.52992 5.33951 1.87389 9.45492 1.87389C11.5126 1.87389 13.3417 2.72695 14.8279 4.18935C16.3139 5.77355 16.9998 7.72351 16.9998 9.9171C16.9998 14.1824 13.6847 17.8383 9.45492 17.8383ZM13.5703 11.745C13.3417 11.6232 12.1985 11.0138 11.9699 11.0138C11.7413 10.8919 11.6269 10.892 11.5126 11.1358C11.3983 11.3795 10.9411 11.8669 10.8267 12.1106C10.7125 12.2325 10.5981 12.2325 10.3695 12.2325C10.1408 12.1106 9.45492 11.8669 8.54038 11.0138C7.85448 10.4046 7.39722 9.55145 7.28295 9.30772C7.16858 9.06399 7.28295 8.94207 7.39722 8.82026C7.51158 8.69834 7.62585 8.57652 7.74021 8.45461C7.85448 8.33279 7.85448 8.21098 7.96885 8.08906C8.08312 7.96724 7.96885 7.84533 7.96885 7.72351C7.96885 7.6016 7.51158 6.38293 7.28295 5.89547C7.16858 5.52992 6.93995 5.52992 6.82568 5.52992C6.71131 5.52992 6.59695 5.52992 6.36832 5.52992C6.25405 5.52992 6.02541 5.52982 5.79678 5.77355C5.56815 6.01728 4.99661 6.62667 4.99661 7.84533C4.99661 9.06399 5.79678 10.1607 5.91105 10.4046C6.02541 10.5264 7.51148 13.0855 9.79782 14.0604C11.7413 14.9136 12.0843 14.6698 12.5415 14.6698C12.9988 14.6698 13.9132 14.0605 14.0276 13.5731C14.2562 12.9637 14.2562 12.4762 14.142 12.4762C14.0276 11.867 13.799 11.867 13.5703 11.745Z" fill="white"/>
</svg>
