<svg width="21" height="23" viewBox="0 0 21 23" fill="none" xmlns="http://www.w3.org/2000/svg">
<path fill-rule="evenodd" clip-rule="evenodd" d="M17.7605 4.02405C16.96 3.1706 15.8751 2.68953 14.7429 2.68589H6.19842C5.0662 2.68953 3.98134 3.1706 3.18085 4.02405C2.38027 4.8774 1.929 6.0339 1.92558 7.24089V16.3497C1.929 17.5567 2.38027 18.7132 3.18085 19.5665C3.98134 20.42 5.0662 20.901 6.19842 20.9047H14.7429C15.8751 20.901 16.96 20.42 17.7605 19.5665C18.5611 18.7132 19.0123 17.5567 19.0158 16.3497V7.24089C19.0123 6.0339 18.5611 4.8774 17.7605 4.02405ZM6.19842 0.864258H14.7429C18.0329 0.864258 20.7245 3.7336 20.7245 7.24089V16.3497C20.7245 19.8568 18.0329 22.7263 14.7429 22.7263H6.19842C2.90839 22.7263 0.216797 19.8568 0.216797 16.3497V7.24089C0.216797 3.7336 2.90839 0.864258 6.19842 0.864258ZM15.3127 7.01061C15.5234 7.16073 15.7712 7.24089 16.0247 7.24089C16.1931 7.24121 16.3599 7.20612 16.5157 7.13762C16.6713 7.06912 16.8127 6.96845 16.9319 6.84155C17.0509 6.71454 17.1454 6.56379 17.2096 6.39785C17.2739 6.23191 17.3068 6.05399 17.3064 5.87452C17.3064 5.60426 17.2313 5.34004 17.0904 5.11538C16.9496 4.89062 16.7494 4.71552 16.5152 4.61214C16.281 4.50866 16.0233 4.48159 15.7747 4.53437C15.526 4.58705 15.2976 4.71718 15.1184 4.90832C14.9391 5.09935 14.817 5.34285 14.7676 5.6079C14.7181 5.87295 14.7435 6.14769 14.8406 6.39733C14.9376 6.64708 15.1018 6.86039 15.3127 7.01061ZM12.3697 8.76551C11.8076 8.36512 11.1467 8.15139 10.4707 8.15139C9.56443 8.15244 8.69558 8.53669 8.05476 9.21982C7.41394 9.90296 7.05349 10.8292 7.05252 11.7953C7.05252 12.516 7.25301 13.2205 7.62859 13.8197C8.00418 14.4189 8.53806 14.8859 9.16267 15.1617C9.78718 15.4375 10.4745 15.5097 11.1375 15.3691C11.8006 15.2284 12.4096 14.8815 12.8877 14.3719C13.3657 13.8623 13.6912 13.213 13.8231 12.5061C13.955 11.7993 13.8873 11.0666 13.6286 10.4008C13.3699 9.73504 12.9318 9.1659 12.3697 8.76551ZM7.62234 7.25089C8.4654 6.65031 9.45661 6.32977 10.4707 6.32977C11.8304 6.32977 13.1344 6.90557 14.096 7.93059C15.0575 8.95561 15.5976 10.3457 15.5976 11.7953C15.5976 12.8762 15.2969 13.933 14.7336 14.8317C14.1702 15.7305 13.3695 16.4311 12.4327 16.8448C11.4959 17.2584 10.465 17.3667 9.47048 17.1557C8.47595 16.9448 7.56238 16.4243 6.84539 15.66C6.1284 14.8956 5.64012 13.9217 5.44227 12.8615C5.24442 11.8013 5.34598 10.7024 5.73397 9.7037C6.12205 8.70503 6.77918 7.85147 7.62234 7.25089Z" fill="white"/>
</svg>
