<svg width="93" height="29" viewBox="0 0 93 29" fill="none" xmlns="http://www.w3.org/2000/svg">
<g clip-path="url(#clip0_200_575)">
<path d="M1.27417 22.0507V0.908387H14.9261V4.01933H5.14019V9.93919H13.0535V12.9897H5.14019V22.0507H1.27417ZM24.3016 22.4132C22.7914 22.4132 21.4524 22.091 20.2845 21.4467C19.1167 20.8023 18.2005 19.8962 17.536 18.7284C16.8716 17.5605 16.5393 16.2114 16.5393 14.6811C16.5393 13.1307 16.8615 11.7514 17.5058 10.5433C18.1703 9.33512 19.0764 8.39882 20.2241 7.73434C21.392 7.04973 22.7612 6.70743 24.3318 6.70743C25.8017 6.70743 27.1004 7.0296 28.228 7.67394C29.3556 8.31827 30.2315 9.20424 30.8557 10.3318C31.5001 11.4393 31.8222 12.6776 31.8222 14.0468C31.8222 14.2683 31.8122 14.4999 31.792 14.7415C31.792 14.9831 31.7819 15.2348 31.7618 15.4966H20.3752C20.4557 16.6645 20.8584 17.5806 21.5833 18.2451C22.3283 18.9096 23.2243 19.2418 24.2714 19.2418C25.0567 19.2418 25.7111 19.0707 26.2346 18.7284C26.7783 18.3659 27.181 17.9028 27.4427 17.339H31.3692C31.0873 18.2854 30.6141 19.1512 29.9496 19.9365C29.3053 20.7016 28.4999 21.3057 27.5333 21.7487C26.587 22.1917 25.5097 22.4132 24.3016 22.4132ZM24.3318 9.84858C23.3854 9.84858 22.5498 10.1204 21.8249 10.6641C21.1 11.1876 20.6369 11.993 20.4356 13.0803H27.8958C27.8354 12.0937 27.4729 11.3084 26.8085 10.7245C26.144 10.1405 25.3184 9.84858 24.3318 9.84858ZM35.0739 22.0507V0.304321H38.9399V22.0507H35.0739ZM44.9742 4.74421C44.2694 4.74421 43.6855 4.53279 43.2224 4.10994C42.7794 3.6871 42.5579 3.1535 42.5579 2.50917C42.5579 1.86483 42.7794 1.3413 43.2224 0.93859C43.6855 0.515745 44.2694 0.304321 44.9742 0.304321C45.6789 0.304321 46.2528 0.515745 46.6958 0.93859C47.1589 1.3413 47.3904 1.86483 47.3904 2.50917C47.3904 3.1535 47.1589 3.6871 46.6958 4.10994C46.2528 4.53279 45.6789 4.74421 44.9742 4.74421ZM43.0412 22.0507V7.06987H46.9072V22.0507H43.0412ZM50.9424 28.6955V7.06987H54.3855L54.8084 9.21431C55.2916 8.54983 55.9259 7.9659 56.7112 7.46251C57.5166 6.95912 58.5536 6.70743 59.8221 6.70743C61.2316 6.70743 62.4901 7.04973 63.5976 7.73434C64.705 8.41895 65.5809 9.35526 66.2252 10.5433C66.8696 11.7313 67.1917 13.0803 67.1917 14.5905C67.1917 16.1007 66.8696 17.4497 66.2252 18.6377C65.5809 19.8056 64.705 20.7318 63.5976 21.4165C62.4901 22.0809 61.2316 22.4132 59.8221 22.4132C58.6945 22.4132 57.7079 22.2017 56.8622 21.7789C56.0165 21.356 55.3319 20.762 54.8084 19.9969V28.6955H50.9424ZM59.0066 19.0304C60.2349 19.0304 61.2518 18.6176 62.0572 17.7921C62.8626 16.9665 63.2653 15.8993 63.2653 14.5905C63.2653 13.2817 62.8626 12.2044 62.0572 11.3587C61.2518 10.513 60.2349 10.0902 59.0066 10.0902C57.7582 10.0902 56.7313 10.513 55.9259 11.3587C55.1406 12.1843 54.748 13.2515 54.748 14.5603C54.748 15.8691 55.1406 16.9464 55.9259 17.7921C56.7313 18.6176 57.7582 19.0304 59.0066 19.0304ZM77.9243 22.4132C76.4142 22.4132 75.0752 22.091 73.9073 21.4467C72.7394 20.8023 71.8233 19.8962 71.1588 18.7284C70.4943 17.5605 70.1621 16.2114 70.1621 14.6811C70.1621 13.1307 70.4842 11.7514 71.1286 10.5433C71.7931 9.33512 72.6992 8.39882 73.8469 7.73434C75.0147 7.04973 76.384 6.70743 77.9545 6.70743C79.4244 6.70743 80.7232 7.0296 81.8508 7.67394C82.9784 8.31827 83.8543 9.20424 84.4785 10.3318C85.1227 11.4393 85.4449 12.6776 85.4449 14.0468C85.4449 14.2683 85.4348 14.4999 85.4147 14.7415C85.4147 14.9831 85.4046 15.2348 85.3845 15.4966H73.9979C74.0784 16.6645 74.4812 17.5806 75.206 18.2451C75.9511 18.9096 76.8471 19.2418 77.8941 19.2418C78.6794 19.2418 79.3338 19.0707 79.8573 18.7284C80.401 18.3659 80.8037 17.9028 81.0655 17.339H84.9918C84.71 18.2854 84.2368 19.1512 83.5724 19.9365C82.928 20.7016 82.1226 21.3057 81.1561 21.7487C80.2097 22.1917 79.1325 22.4132 77.9243 22.4132ZM77.9545 9.84858C77.0082 9.84858 76.1725 10.1204 75.4477 10.6641C74.7228 11.1876 74.2597 11.993 74.0583 13.0803H81.5185C81.4581 12.0937 81.0957 11.3084 80.4312 10.7245C79.7667 10.1405 78.9412 9.84858 77.9545 9.84858Z" fill="white"/>
<path d="M89.7538 22.2269C89.1665 22.2269 88.6799 22.0423 88.294 21.6732C87.9248 21.304 87.7402 20.8594 87.7402 20.3392C87.7402 19.8023 87.9248 19.3492 88.294 18.9801C88.6799 18.6109 89.1665 18.4263 89.7538 18.4263C90.3411 18.4263 90.8193 18.6109 91.1884 18.9801C91.5744 19.3492 91.7673 19.8023 91.7673 20.3392C91.7673 20.8594 91.5744 21.304 91.1884 21.6732C90.8193 22.0423 90.3411 22.2269 89.7538 22.2269Z" fill="#01DFB2"/>
</g>
<defs>
<clipPath id="clip0_200_575">
<rect width="91.449" height="28.5254" fill="white" transform="translate(0.897949 0.237213)"/>
</clipPath>
</defs>
</svg>
